<?xml version="1.0" encoding="utf-8"?>
<!-- Generator: Adobe Illustrator 18.0.0, SVG Export Plug-In . SVG Version: 6.00 Build 0)  -->
<!DOCTYPE svg PUBLIC "-//W3C//DTD SVG 1.1//EN" "http://www.w3.org/Graphics/SVG/1.1/DTD/svg11.dtd">
<svg version="1.1" id="Layer_1" xmlns="http://www.w3.org/2000/svg" xmlns:xlink="http://www.w3.org/1999/xlink" x="0px" y="0px"
	 viewBox="0 0 90 70" enable-background="new 0 0 90 70" xml:space="preserve">
<g>
	<g>
		<path fill="#555759" d="M7.9,21.7H30v2.1c-0.8-0.1-1.5-0.2-2.3-0.2H15.4v10h10.4c0.8,0,1.5-0.1,2.3-0.2v2.1
			c-0.6-0.1-1.3-0.2-2.2-0.2H15.4v11.1c0,0.4,0.1,0.9,0.3,1.3H7.9c0.2-0.4,0.3-0.8,0.3-1.3V22.9C8.2,22.5,8.1,22.1,7.9,21.7z"/>
		<path fill="#555759" d="M48.9,36.4L37.7,22.7c-0.4-0.4-0.7-0.8-1-1.1h8.5c0,0.3,0.3,0.6,0.6,1.1l8.9,10.8l9.2-10.9
			c0.3-0.3,0.5-0.7,0.6-1.1h4.1c-0.3,0.3-0.7,0.6-1,1L56.2,36.3v10.2c0,0.5,0.1,0.9,0.3,1.3h-7.9c0.2-0.4,0.3-0.8,0.3-1.3V36.4z"/>
		<path fill="#555759" d="M78.8,27c0.8,0,1.5,0.1,2,0.4c0.5,0.3,0.7,0.6,0.7,1.1c0,0.5-0.2,0.8-0.7,1.1c-0.5,0.3-1.1,0.4-1.9,0.4
			c-1.8,0-2.7-0.5-2.7-1.5c0-0.5,0.2-0.8,0.7-1.1C77.4,27.2,78,27,78.8,27z M76.5,31.4h4.6c-0.1,0.3-0.2,0.7-0.2,1v14.4
			c0,0.3,0.1,0.7,0.2,1h-4.6c0.1-0.3,0.2-0.6,0.2-1V32.5C76.6,32.1,76.6,31.7,76.5,31.4z"/>
	</g>
	<path fill="#004D71" d="M0,13.1v3.7C0,16.8,21.5,5.6,46.7,6C71.9,6.4,90,16.8,90,16.8v-3.7c0,0-17.2-12.1-43.3-12.9
		C20.7-0.5,0,13.1,0,13.1z"/>
	<path fill="#004D71" d="M66.4,61.4C59.5,63,51.6,64.2,43.3,64C18.1,63.6,0,53.2,0,53.2v3.7c0,0,17.2,12.1,43.3,12.9
		c8.5,0.2,16.3-1,23.1-2.8V61.4z"/>
</g>
</svg>
