<?xml version="1.0" encoding="utf-8"?>
<!-- Generator: Adobe Illustrator 18.0.0, SVG Export Plug-In . SVG Version: 6.00 Build 0)  -->
<!DOCTYPE svg PUBLIC "-//W3C//DTD SVG 1.1//EN" "http://www.w3.org/Graphics/SVG/1.1/DTD/svg11.dtd">
<svg version="1.1" id="Layer_1" xmlns="http://www.w3.org/2000/svg" xmlns:xlink="http://www.w3.org/1999/xlink" x="0px" y="0px"
	 viewBox="0 0 271 71" enable-background="new 0 0 271 71" xml:space="preserve">
<g>
	<g>
		<path fill="#555759" d="M8.2,22.1h22.3v2.1c-0.8-0.1-1.5-0.2-2.3-0.2H15.8v10.1h10.5c0.8,0,1.6-0.1,2.3-0.2v2.2
			C28,36.1,27.2,36,26.4,36H15.8v11.2c0,0.5,0.1,0.9,0.3,1.3H8.2c0.2-0.4,0.3-0.8,0.3-1.3V23.3C8.4,22.9,8.3,22.5,8.2,22.1z"/>
		<path fill="#555759" d="M49.5,36.9L38.2,23.1c-0.4-0.5-0.7-0.8-1-1.1h8.5c0,0.3,0.3,0.6,0.6,1.1l8.9,10.9l9.3-11
			c0.3-0.3,0.5-0.7,0.6-1.1h4.2c-0.3,0.3-0.7,0.6-1,1L56.9,36.8v10.3c0,0.5,0.1,0.9,0.3,1.3h-7.9c0.2-0.4,0.3-0.8,0.3-1.3V36.9z"/>
		<path fill="#555759" d="M79.7,27.5c0.8,0,1.5,0.1,2,0.4c0.5,0.3,0.7,0.6,0.7,1.1c0,0.5-0.2,0.9-0.7,1.1c-0.5,0.3-1.1,0.4-1.9,0.4
			C77.9,30.5,77,30,77,29c0-0.5,0.2-0.8,0.7-1.1C78.2,27.6,78.9,27.5,79.7,27.5z M77.3,31.9H82c-0.1,0.3-0.2,0.7-0.2,1v14.5
			c0,0.4,0.1,0.7,0.2,1h-4.7c0.1-0.3,0.2-0.7,0.2-1V32.9C77.5,32.6,77.4,32.2,77.3,31.9z"/>
	</g>
	<path fill="#004D71" d="M0.2,13.4v3.8c0,0,21.7-11.3,47.1-10.9C72.7,6.7,91,17.1,91,17.1v-3.7c0,0-17.3-12.2-43.6-13
		C21.1-0.3,0.2,13.4,0.2,13.4z"/>
	<path fill="#004D71" d="M67.2,62.2c-6.9,1.6-14.9,2.7-23.3,2.6C18.4,64.3,0.2,53.9,0.2,53.9v3.7c0,0,17.3,12.2,43.6,13
		c8.5,0.2,16.5-1,23.3-2.9V62.2z"/>
	<path fill="#004D71" d="M109.3,46c-0.9,0.8-1.8,1.3-2.5,1.7c-1.5,0.7-3.3,1-5.5,1c-3.2,0-5.7-0.8-7.4-2.3c-1.8-1.6-2.6-3.7-2.6-6.2
		c0-2.6,1-4.8,3-6.4c1.8-1.5,4.4-2.2,7.8-2.2c1.6,0,3,0.2,4.2,0.5c1.1,0.3,2.2,0.9,3.1,1.6v-7c0-0.4-0.1-0.7-0.2-1h5.8
		c-0.1,0.3-0.2,0.7-0.2,1v20.8c0,0.4,0.1,0.7,0.2,1h-5.5V46z M103.4,33.3c-1.5,0-2.7,0.3-3.8,0.9c-1.8,1.1-2.6,3-2.6,5.9
		c0,4.4,2,6.5,6.1,6.5c2.1,0,3.7-0.6,4.8-1.7c1.1-1.2,1.6-2.8,1.6-5.1C109.6,35.5,107.5,33.3,103.4,33.3z"/>
	<path fill="#004D71" d="M134.2,31.5c4.1,0,7.3,0.8,9.5,2.5c2.1,1.6,3.2,3.6,3.2,6.1c0,2.7-1.2,4.8-3.7,6.4c-2.3,1.5-5.3,2.2-9,2.2
		c-4,0-7.1-0.8-9.3-2.4c-2.3-1.6-3.4-3.8-3.4-6.4c0-2.4,1.1-4.4,3.4-6C127.1,32.4,130.2,31.6,134.2,31.5z M134.3,32.9
		c-1,0-1.9,0.2-2.8,0.5c-0.9,0.3-1.6,0.7-2.1,1.3c-1.4,1.4-2.1,3.2-2.1,5.4c0,2.3,0.7,4.2,2.1,5.6c0.5,0.5,1.2,0.9,2.1,1.2
		c0.9,0.3,1.8,0.5,2.8,0.5c1,0,1.9-0.2,2.8-0.5c0.9-0.3,1.6-0.7,2.1-1.2c1.4-1.4,2.1-3.2,2.1-5.5c0-2.3-0.7-4.2-2.1-5.5
		C138,33.5,136.4,32.9,134.3,32.9z"/>
	<path fill="#004D71" d="M172.7,47.6c-2,0.5-3.5,0.8-4.4,1c-0.9,0.1-2,0.2-3.4,0.2c-3.9,0-6.9-0.7-9-2.2c-2.3-1.5-3.4-3.6-3.4-6.2
		c0-3,1.4-5.3,4.3-6.9c2.4-1.3,5.5-2,9.3-2c2.1,0,4.3,0.2,6.7,0.7v2.4c-1.3-0.6-2.4-1-3.3-1.3c-0.9-0.2-1.9-0.3-3-0.3
		c-2.5,0-4.5,0.6-5.9,1.9c-1.5,1.3-2.2,3-2.2,5.2c0,1.9,0.6,3.5,1.7,4.7c1.3,1.5,3.3,2.2,6.1,2.2c1.2,0,2.3-0.1,3.3-0.4
		c1-0.3,2.1-0.7,3.4-1.4V47.6z"/>
	<path fill="#004D71" d="M179.8,33.5h-4.1v-1.5h4.1v-3.2l5.5-0.4c-0.1,0.6-0.1,1-0.1,1.2v2.3h4.4v1.5h-4.4v12c0,1,0.7,1.5,2,1.5
		c0.7,0,1.5-0.2,2.5-0.5v1.7c-1.5,0.4-3,0.7-4.7,0.7c-1.8,0-3.1-0.3-4-0.8c-0.9-0.5-1.3-1.3-1.3-2.4V33.5z"/>
	<path fill="#004D71" d="M206.3,31.5c4.1,0,7.3,0.8,9.5,2.5c2.1,1.6,3.2,3.6,3.2,6.1c0,2.7-1.2,4.8-3.7,6.4c-2.3,1.5-5.3,2.2-9,2.2
		c-4,0-7.1-0.8-9.3-2.4c-2.3-1.6-3.4-3.8-3.4-6.4c0-2.4,1.1-4.4,3.4-6C199.2,32.4,202.3,31.6,206.3,31.5z M206.3,32.9
		c-1,0-1.9,0.2-2.8,0.5c-0.9,0.3-1.6,0.7-2.1,1.3c-1.4,1.4-2.1,3.2-2.1,5.4c0,2.3,0.7,4.2,2.1,5.6c0.5,0.5,1.2,0.9,2.1,1.2
		c0.9,0.3,1.8,0.5,2.8,0.5c1,0,1.9-0.2,2.8-0.5c0.9-0.3,1.6-0.7,2.1-1.2c1.4-1.4,2.1-3.2,2.1-5.5c0-2.3-0.7-4.2-2.1-5.5
		C210.1,33.5,208.4,32.9,206.3,32.9z"/>
	<path fill="#004D71" d="M225.7,31.9h5.5V34c0.5-0.9,1.3-1.5,2.3-1.8c1-0.4,2.5-0.6,4.6-0.7v2.5c-0.4,0-0.7,0-0.9,0
		c-4,0-5.9,1.3-5.9,3.9v9.5c0,0.4,0.1,0.7,0.2,1h-5.8c0.1-0.3,0.2-0.7,0.2-1V32.9C225.9,32.6,225.9,32.2,225.7,31.9z"/>
	<path fill="#004D71" d="M242,47.3l0.9-2.2c1.6,0.8,2.9,1.3,4.1,1.6c1.2,0.3,2.5,0.5,3.8,0.5c1.7,0,3.1-0.3,4-0.9
		c0.9-0.5,1.3-1.2,1.3-1.9c0-0.7-0.4-1.3-1.3-1.7c-0.8-0.4-2.6-0.9-5.4-1.6c-2.7-0.7-4.6-1.4-5.5-2.2c-0.9-0.8-1.3-1.6-1.3-2.5
		c0-1.7,1.2-3,3.7-3.9c1.7-0.6,3.8-0.9,6.1-0.9c2.6,0,5.4,0.4,8.2,1.1l-0.9,2c-2.4-1.1-4.7-1.6-6.8-1.6c-1.5,0-2.7,0.2-3.6,0.7
		c-1,0.5-1.5,1.1-1.5,1.8c0,0.6,0.4,1.1,1.1,1.5c0.7,0.4,2.3,0.8,4.7,1.4c2.9,0.7,4.8,1.4,6,2.1c1.1,0.7,1.7,1.7,1.7,2.9
		c0,1.7-1.1,3.1-3.3,4c-1.8,0.8-4.2,1.2-7.3,1.2C247.9,48.7,245,48.3,242,47.3z"/>
	<path fill="#004D71" d="M264,44.8v-0.4h2.9v0.4h-1.2v3.2h-0.5v-3.2H264z"/>
	<path fill="#004D71" d="M267.9,44.4l1.1,3l1.1-3h0.7v3.6h-0.5v-3h0l-1.1,3h-0.4l-1.1-3h0v3h-0.4v-3.6H267.9z"/>
</g>
</svg>
