<?xml version="1.0" encoding="utf-8"?>
<!-- Generator: Adobe Illustrator 18.0.0, SVG Export Plug-In . SVG Version: 6.00 Build 0)  -->
<!DOCTYPE svg PUBLIC "-//W3C//DTD SVG 1.1//EN" "http://www.w3.org/Graphics/SVG/1.1/DTD/svg11.dtd">
<svg version="1.1" id="Layer_1" xmlns="http://www.w3.org/2000/svg" xmlns:xlink="http://www.w3.org/1999/xlink" x="0px" y="0px"
	 viewBox="0 0 200 63" enable-background="new 0 0 200 63" xml:space="preserve">
<g>
	<g>
		<path fill="#555759" d="M74.3,44.1c0,0.4-0.1,0.5-0.5,0.8c-0.7,0.7-1.2,1.3-1.9,2.1c-0.8,0.8-1.3,1.1-1.9,2.1
			c-0.4,0.6-0.6,1.4-1.2,1.4c0.7-1.2,0.9-1.9,1.8-3c0.2-0.2,0.7-0.8,1.2-1.4c-0.2,0.1-0.8,0-1,0.1c-0.3,0.1-0.5,0.1-1,0.1
			c-0.6,0-1.3,0.9-2,1.9c-0.9,1.4-1.8,2.1-2.8,3.4c-0.5,0.6-1.1,1.7-1.5,2.2c-1.8,2.1-2.9,4.3-5.5,4.3c-1.4,0-1.7-0.4-1.7-2.1
			c0-1.1,0.7-2.3,2.2-4.1c2.2-2.6,3.9-3.7,6.9-5.1c1.5-0.7,2.5-0.9,4-1.7c1.7-1.4,1.4-1.5,3.2-3.2c0.9-0.8,2.2-1.5,3.3-2.2
			c-1,0.2-1.9,0.5-2.7,0.7c-0.5,0.2-1.2,0.2-1.7,0.4c-2.1,0.6-3.3,1.2-5.5,1.2c-2.8,0-3.7-0.1-3.7-1.2c0-0.4,0.9-1,1.3-1.2
			c0.4-0.1,0.7-0.2,1.1-0.2c0.7,0,1.4,0.3,1.4,0.7c0,0.2-0.3,0.2-0.4,0.2c-0.3-0.1-0.6-0.2-0.9-0.2c-0.5,0-1.3,0.4-1.3,0.7
			c0,0,0,0.1,0,0.1c0.2,0.4,1.1,0.4,1.9,0.4h0.4c0.6,0,1.1-0.1,1.6-0.1c0.6,0,0.9-0.1,1.4-0.2c1.3-0.4,2.2-0.7,3.2-1.1
			c1.9-0.5,2.5-0.4,4.3-1c1.4-0.6,2.3-0.9,3.8-0.9c0.2,0,0.2,0.5,0.2,0.7c0,0.6-0.9,0.4-1.5,0.5c-0.6,0.1-1.2,0.3-1.8,0.6
			c-1.2,0.7-2.8,1.4-3.8,2.4c-1.9,2.1-1.2,0.9-2.9,3.1c0.4,0.1,0.8,0,1.2,0.1h0.1c0.4,0,0.7-0.3,0.9-0.6c0.3-0.4,0.5-1,1.1-1
			C74,43.8,74.3,43.9,74.3,44.1z M64.6,48.2c-1.5,0.9-2.4,1.6-3.7,2.8l-0.1,0.1c-0.5,0.4-0.8,0.9-1.3,1.4c-0.8,0.9-1.5,1.4-2,2.5
			c-0.3,0.6-0.3,0.9-0.3,1.6c0,0.4,0.8,0.7,1.4,0.7c1.5,0,2.4-1.4,3.3-2.6c0.6-0.7,1.2-1.5,1.8-2.2c1.6-2.3,2.7-3.4,4.2-5.7
			C66.4,47.2,65.9,47.4,64.6,48.2z"/>
		<path fill="#555759" d="M77.1,49.1L77.1,49.1c-0.1,0.7-0.1,0.9-0.3,1.3l0,0.1c0,0.1,0,0.1,0,0.2c0,0.1,0.1,0.2,0.2,0.2
			c0.2,0,0.3-0.1,0.5-0.2c0.1-0.1,0.2-0.2,0.4-0.2c0,0,0.1,0,0.1,0c0,0,0,0.1-0.1,0.2c-0.2,0.2-0.7,0.5-1.1,0.5
			c-0.2,0-0.3,0-0.5-0.1c-0.1,0.2-0.3,0.3-0.5,0.4c-0.5,0.3-1.2,0.7-1.9,1c-0.5,0.2-0.8,0.3-1.4,0.3c-0.2,0-0.5-0.3-0.6-0.6
			c0-0.1,0-0.1,0-0.2c0-0.3,0.1-0.7,0.2-0.9c0.1-0.2,0.1-0.2,0.1-0.2c0-0.1-0.1-0.1-0.1-0.1c-0.1,0-0.1,0-0.1-0.1c0,0,0-0.1,0.1-0.1
			c0.2-0.1,0.5-0.3,0.8-0.6c0.3-0.4,1-0.8,1.5-1.1c0.2-0.1,0.7-0.2,1.1-0.2h0.1c0.2,0,0.5,0.1,0.6,0.2c0.3-0.1,0.3-0.2,0.5-0.2
			C77,48.7,77.1,49,77.1,49.1z M75.9,49.5C75.9,49.5,75.9,49.5,75.9,49.5c-0.1,0-0.2,0-0.2,0c-0.3,0.4-1.7,0.8-2.2,0.9
			c-0.3,0.1-0.7,1-0.7,1.3c0,0.3,0.3,0.3,0.5,0.3c0.4,0,1.3-0.2,1.7-0.5c0.1-0.1,0.4-0.4,0.8-0.7c0-0.1,0.1-0.2,0.1-0.3
			c0,0,0.3-0.3,0.3-0.5C76.2,49.8,76.1,49.7,75.9,49.5z"/>
		<path fill="#555759" d="M80.7,48.6c0,0.2,0.4,0.7,0.4,1.2c0,0.3-0.4,0.9-0.4,0.9c-0.2,0.3-0.1,0.2-0.4,0.6
			c-0.1,0.1-0.2,0.2-0.2,0.3c0,0.1,0,0.1,0.2,0.1c0.2,0,2-0.7,2.7-1.2c0.1,0,0.2-0.1,0.2-0.1c0.1,0,0.1,0,0.1,0.1c0,0,0,0.1-0.1,0.2
			c-0.1,0.1-0.5,0.4-0.6,0.4c-0.5,0.3-2.7,1.6-2.9,1.6c-0.5,0-0.8-0.2-0.8-0.5c0-0.1,0-0.2,0.1-0.2c0.4-0.6,1.2-1.9,1.2-2.2
			c0-0.2-0.2-0.3-0.4-0.3c-0.3,0-0.7,0.5-1,0.7c-0.4,0.3-1,0.7-1.1,0.7c-0.1,0-0.2,0-0.2-0.1c0,0,0-0.1,0-0.1
			c0.3-0.2,1.2-0.9,1.4-1.2c0,0,0.3-0.3,0.3-0.4c0.1-0.1,0.1-0.3,0.2-0.4c0.1-0.2,0.3-0.7,0.5-0.8c0.1-0.1,0.3-0.1,0.3-0.1
			C80.6,47.8,80.7,48.5,80.7,48.6z"/>
		<path fill="#555759" d="M92.2,51.1c-0.3,0-0.7,0.2-1,0.3c-0.5,0.2-0.8,0.2-1.1,0.2c-0.4,0-0.6-0.3-0.6-0.6c0-0.3,0.1-0.6,0.2-0.9
			l0.1-0.2c0,0,1.4-2.6,1.9-2.6c0.2,0,0.4,0.2,0.4,0.3c-0.2,0.7-1.4,1.8-1.7,3c0,0,0,0.1,0,0.1c0,0.2,0.1,0.3,0.3,0.3
			c0.6,0,1-0.1,1.6-0.4c0.7-0.3,0.8-1,1.6-1c0.2,0,0.4,0,0.4,0.3c0,0.1-0.9,0.9-1.2,1.3c0,0.1-0.1,0.2-0.2,0.3c-0.2,0.2-1,0.9-1,1.1
			c0,0,0,0.1,0.1,0.1c0.1,0,0.2-0.1,0.2-0.1c0.1-0.1,2.2-1.4,2.3-1.5l1.4-0.8c0.1,0,0.1,0,0.1,0c0,0,0.1,0,0.1,0c0,0,0,0.1-0.1,0.2
			c-0.1,0.1-1.1,0.7-1.3,0.8l-2,1.5c-0.2,0.1-0.5,0.2-0.7,0.4c-0.3,0.2-0.8,0.5-1.2,0.7c-0.3,0.2-0.5,0.5-0.8,0.8
			c-0.6,0.6-1.2,1.1-1.5,1.5l-0.2,0.2c-0.7,0.7-1.4,1.5-2.2,2.2c-0.2,0.2-0.6,0.4-0.8,0.7c-1.5,1.4-2,2.2-4,3.3
			c-0.5,0.1-1,0.2-1.6,0.3c0,0-0.1,0-0.1,0c-0.1,0-0.2,0-0.3,0c0,0-0.3-0.1-0.3-0.5c0,0,0-0.1,0-0.2c0-0.2,0-0.4,0.2-0.6
			c0.5-0.8,1.1-1.5,2.1-2.2c0.1-0.1,0.2-0.2,0.3-0.3c0.1-0.2,0.3-0.2,0.4-0.4c0.1-0.2,0.3-0.3,0.4-0.5c0.3-0.2,0.5-0.4,0.8-0.6
			c0.5-0.4,0.3-0.3,0.8-0.6c0.8-0.5,1.5-1.1,2.4-1.5c0.9-0.4,1.8-1,2.8-1.3c0,0,1.3-0.9,1.5-1.1c0.2-0.2,1.7-1.5,1.9-1.9
			C92.3,51.1,92.3,51.1,92.2,51.1z M85.3,56.4c-1.7,0.9-2.2,1.5-3.8,2.8c-0.2,0.1-1.4,1.1-1.4,1.5c0,0-0.2,0.5-0.3,0.7
			c0.1,0,0,0.3,0.2,0.3c0.1,0,1.4-0.3,1.6-0.4c0.7-0.3,0.7-0.9,1.3-1.1c0.5-0.3,0.8-0.7,1.3-1.1c0.6-0.5,0.8-0.6,1-0.7
			c0,0,1.4-1.4,2.3-2.3c0.4-0.4,0.6-0.9,0.6-0.9c0,0,0,0-0.1,0c-0.2,0-0.7,0.2-0.7,0.2C86.9,55.5,85.5,56.3,85.3,56.4z"/>
		<path fill="#555759" d="M100.2,49.1L100.2,49.1c-0.1,0.7-0.1,0.9-0.3,1.3l0,0.1c0,0.1,0,0.1,0,0.2c0,0.1,0.1,0.2,0.2,0.2
			c0.2,0,0.3-0.1,0.5-0.2c0.1-0.1,0.2-0.2,0.4-0.2c0,0,0.1,0,0.1,0c0,0,0,0.1-0.1,0.2c-0.2,0.2-0.7,0.5-1.1,0.5
			c-0.2,0-0.3,0-0.5-0.1c-0.1,0.2-0.3,0.3-0.5,0.4c-0.5,0.3-1.2,0.7-1.9,1c-0.5,0.2-0.8,0.3-1.4,0.3c-0.2,0-0.5-0.3-0.6-0.6
			c0-0.1,0-0.1,0-0.2c0-0.3,0.1-0.7,0.2-0.9c0.1-0.2,0.1-0.2,0.1-0.2c0-0.1-0.1-0.1-0.1-0.1c-0.1,0-0.1,0-0.1-0.1c0,0,0-0.1,0.1-0.1
			c0.2-0.1,0.5-0.3,0.8-0.6c0.3-0.4,1-0.8,1.5-1.1c0.2-0.1,0.7-0.2,1.1-0.2h0.1c0.2,0,0.5,0.1,0.6,0.2c0.3-0.1,0.3-0.2,0.5-0.2
			C100.1,48.7,100.2,49,100.2,49.1z M99,49.5C99,49.5,98.9,49.5,99,49.5c-0.1,0-0.2,0-0.2,0c-0.3,0.4-1.7,0.8-2.2,0.9
			c-0.3,0.1-0.7,1-0.7,1.3c0,0.3,0.3,0.3,0.5,0.3c0.4,0,1.3-0.2,1.7-0.5c0.1-0.1,0.4-0.4,0.8-0.7c0-0.1,0.1-0.2,0.1-0.3
			c0,0,0.3-0.3,0.3-0.5C99.3,49.8,99.2,49.7,99,49.5z"/>
		<path fill="#555759" d="M104.9,52.1c-0.2,0-0.5-0.4-0.5-0.5c0-0.5,0.3-0.9,0.4-1.3c-0.6,0.3-2.6,1.7-3.7,1.7
			c-0.2,0-0.3-0.2-0.3-0.4c0-0.2,0.1-0.5,0.2-0.7l0.2-0.3c-0.1,0-0.3,0.2-0.5,0.2c0,0-0.1,0-0.1-0.1c0-0.1,0.1-0.1,0.1-0.1
			c0.3-0.2,0.7-0.5,1-0.7c0.2-0.2,0.4-0.4,0.7-0.6c0.2-0.2,0.5-0.6,0.7-0.6c0.1,0,0.4,0.1,0.4,0.2c0,0.3-1.7,1.5-1.7,2.2
			c0,0.2,0.2,0.2,0.3,0.2c0.9,0,2.9-1.7,3.5-2.4c0.2-0.2,0.5-0.8,0.7-0.8c0.1,0,0.5,0.1,0.5,0.2c0,0.4-1.6,1.9-1.6,2.8
			c0,0,0,0.3,0.2,0.3c0.6,0,1.1-0.6,1.6-0.7l0.1,0.1C107.2,50.9,105.3,52.1,104.9,52.1z"/>
		<path fill="#555759" d="M109.8,51.1c0,0.3-0.5,0.8-0.7,0.8c-0.3,0-0.9-0.1-0.9-0.6c0-0.1,0.7-0.9,1.2-0.9
			C109.5,50.5,109.7,50.9,109.8,51.1C109.8,51.1,109.8,51.1,109.8,51.1z"/>
		<path fill="#555759" d="M134.2,44.1c0,0.4-0.1,0.5-0.5,0.8c-0.7,0.7-1.2,1.3-1.9,2.1c-0.8,0.8-1.3,1.1-1.9,2.1
			c-0.4,0.6-0.6,1.4-1.2,1.4c0.7-1.2,0.9-1.9,1.8-3c0.2-0.2,0.7-0.8,1.2-1.4c-0.2,0.1-0.8,0-1,0.1c-0.3,0.1-0.5,0.1-1,0.1
			c-0.6,0-1.3,0.9-2,1.9c-0.9,1.4-1.8,2.1-2.8,3.4c-0.5,0.6-1.1,1.7-1.5,2.2c-1.8,2.1-2.9,4.3-5.5,4.3c-1.4,0-1.7-0.4-1.7-2.1
			c0-1.1,0.7-2.3,2.2-4.1c2.2-2.6,3.9-3.7,6.9-5.1c1.5-0.7,2.5-0.9,4-1.7c1.7-1.4,1.4-1.5,3.2-3.2c0.9-0.8,2.2-1.5,3.3-2.2
			c-1,0.2-1.9,0.5-2.7,0.7c-0.5,0.2-1.2,0.2-1.7,0.4c-2.1,0.6-3.3,1.2-5.5,1.2c-2.8,0-3.7-0.1-3.7-1.2c0-0.4,0.9-1,1.3-1.2
			c0.4-0.1,0.7-0.2,1.1-0.2c0.7,0,1.4,0.3,1.4,0.7c0,0.2-0.3,0.2-0.4,0.2c-0.3-0.1-0.6-0.2-0.9-0.2c-0.5,0-1.3,0.4-1.3,0.7
			c0,0,0,0.1,0,0.1c0.2,0.4,1.1,0.4,1.9,0.4h0.4c0.6,0,1.1-0.1,1.6-0.1c0.6,0,0.9-0.1,1.4-0.2c1.3-0.4,2.2-0.7,3.2-1.1
			c1.9-0.5,2.5-0.4,4.3-1c1.4-0.6,2.3-0.9,3.8-0.9c0.2,0,0.2,0.5,0.2,0.7c0,0.6-0.9,0.4-1.5,0.5c-0.6,0.1-1.2,0.3-1.8,0.6
			c-1.2,0.7-2.8,1.4-3.8,2.4c-1.9,2.1-1.2,0.9-2.9,3.1c0.4,0.1,0.8,0,1.2,0.1h0.1c0.4,0,0.7-0.3,0.9-0.6c0.3-0.4,0.5-1,1.1-1
			C133.9,43.8,134.2,43.9,134.2,44.1z M124.5,48.2c-1.5,0.9-2.4,1.6-3.7,2.8l-0.1,0.1c-0.5,0.4-0.8,0.9-1.3,1.4
			c-0.8,0.9-1.5,1.4-2,2.5c-0.3,0.6-0.3,0.9-0.3,1.6c0,0.4,0.8,0.7,1.4,0.7c1.5,0,2.4-1.4,3.3-2.6c0.6-0.7,1.2-1.5,1.8-2.2
			c1.6-2.3,2.7-3.4,4.2-5.7C126.4,47.2,125.8,47.4,124.5,48.2z"/>
		<path fill="#555759" d="M137.1,49.1L137.1,49.1c-0.1,0.7-0.1,0.9-0.3,1.3l0,0.1c0,0.1,0,0.1,0,0.2c0,0.1,0.1,0.2,0.2,0.2
			c0.2,0,0.3-0.1,0.5-0.2c0.1-0.1,0.2-0.2,0.4-0.2c0,0,0.1,0,0.1,0c0,0,0,0.1-0.1,0.2c-0.2,0.2-0.7,0.5-1.1,0.5
			c-0.2,0-0.3,0-0.5-0.1c-0.1,0.2-0.3,0.3-0.5,0.4c-0.5,0.3-1.2,0.7-1.9,1c-0.5,0.2-0.8,0.3-1.4,0.3c-0.2,0-0.5-0.3-0.6-0.6
			c0-0.1,0-0.1,0-0.2c0-0.3,0.1-0.7,0.2-0.9c0.1-0.2,0.1-0.2,0.1-0.2c0-0.1-0.1-0.1-0.1-0.1c-0.1,0-0.1,0-0.1-0.1c0,0,0-0.1,0.1-0.1
			c0.2-0.1,0.5-0.3,0.8-0.6c0.3-0.4,1-0.8,1.5-1.1c0.2-0.1,0.7-0.2,1.1-0.2h0.1c0.2,0,0.5,0.1,0.6,0.2c0.3-0.1,0.3-0.2,0.5-0.2
			C137,48.7,137.1,49,137.1,49.1z M135.9,49.5C135.8,49.5,135.8,49.5,135.9,49.5c-0.1,0-0.2,0-0.2,0c-0.3,0.4-1.7,0.8-2.2,0.9
			c-0.3,0.1-0.7,1-0.7,1.3c0,0.3,0.3,0.3,0.5,0.3c0.4,0,1.3-0.2,1.7-0.5c0.1-0.1,0.4-0.4,0.8-0.7c0-0.1,0.1-0.2,0.1-0.3
			c0,0,0.3-0.3,0.3-0.5C136.2,49.8,136.1,49.7,135.9,49.5z"/>
		<path fill="#555759" d="M140.6,48.6c0,0.2,0.4,0.7,0.4,1.2c0,0.3-0.4,0.9-0.4,0.9c-0.2,0.3-0.1,0.2-0.4,0.6
			c-0.1,0.1-0.2,0.2-0.2,0.3c0,0.1,0,0.1,0.2,0.1c0.2,0,2-0.7,2.7-1.2c0.1,0,0.2-0.1,0.2-0.1c0.1,0,0.1,0,0.1,0.1c0,0,0,0.1-0.1,0.2
			c-0.1,0.1-0.5,0.4-0.6,0.4c-0.5,0.3-2.7,1.6-2.9,1.6c-0.5,0-0.8-0.2-0.8-0.5c0-0.1,0-0.2,0.1-0.2c0.4-0.6,1.2-1.9,1.2-2.2
			c0-0.2-0.2-0.3-0.4-0.3c-0.3,0-0.7,0.5-1,0.7c-0.4,0.3-1,0.7-1.1,0.7c-0.1,0-0.2,0-0.2-0.1c0,0,0-0.1,0-0.1
			c0.3-0.2,1.2-0.9,1.4-1.2c0,0,0.3-0.3,0.3-0.4c0.1-0.1,0.1-0.3,0.2-0.4c0.1-0.2,0.3-0.7,0.5-0.8c0.1-0.1,0.3-0.1,0.3-0.1
			C140.6,47.8,140.6,48.5,140.6,48.6z"/>
		<path fill="#555759" d="M152.1,51.1c-0.3,0-0.7,0.2-1,0.3c-0.5,0.2-0.8,0.2-1.1,0.2c-0.4,0-0.6-0.3-0.6-0.6c0-0.3,0.1-0.6,0.2-0.9
			l0.1-0.2c0,0,1.4-2.6,1.9-2.6c0.2,0,0.4,0.2,0.4,0.3c-0.2,0.7-1.4,1.8-1.7,3c0,0,0,0.1,0,0.1c0,0.2,0.1,0.3,0.3,0.3
			c0.6,0,1-0.1,1.6-0.4c0.7-0.3,0.8-1,1.6-1c0.2,0,0.4,0,0.4,0.3c0,0.1-0.9,0.9-1.2,1.3c0,0.1-0.1,0.2-0.2,0.3c-0.2,0.2-1,0.9-1,1.1
			c0,0,0,0.1,0.1,0.1c0.1,0,0.2-0.1,0.2-0.1c0.1-0.1,2.2-1.4,2.3-1.5l1.4-0.8c0.1,0,0.1,0,0.1,0c0,0,0.1,0,0.1,0c0,0,0,0.1-0.1,0.2
			c-0.1,0.1-1.1,0.7-1.3,0.8l-2,1.5c-0.2,0.1-0.5,0.2-0.7,0.4c-0.3,0.2-0.8,0.5-1.2,0.7c-0.3,0.2-0.5,0.5-0.8,0.8
			c-0.6,0.6-1.2,1.1-1.5,1.5l-0.2,0.2c-0.7,0.7-1.4,1.5-2.2,2.2c-0.2,0.2-0.6,0.4-0.8,0.7c-1.5,1.4-2,2.2-4,3.3
			c-0.5,0.1-1,0.2-1.6,0.3c0,0-0.1,0-0.1,0c-0.1,0-0.2,0-0.3,0c0,0-0.3-0.1-0.3-0.5c0,0,0-0.1,0-0.2c0-0.2,0-0.4,0.2-0.6
			c0.5-0.8,1.1-1.5,2.1-2.2c0.1-0.1,0.2-0.2,0.3-0.3c0.1-0.2,0.3-0.2,0.4-0.4c0.1-0.2,0.3-0.3,0.4-0.5c0.3-0.2,0.5-0.4,0.8-0.6
			c0.5-0.4,0.3-0.3,0.8-0.6c0.8-0.5,1.5-1.1,2.4-1.5c0.9-0.4,1.8-1,2.8-1.3c0,0,1.3-0.9,1.5-1.1c0.2-0.2,1.7-1.5,1.9-1.9
			C152.3,51.1,152.2,51.1,152.1,51.1z M145.3,56.4c-1.7,0.9-2.2,1.5-3.8,2.8c-0.2,0.1-1.4,1.1-1.4,1.5c0,0-0.2,0.5-0.3,0.7
			c0.1,0,0,0.3,0.2,0.3c0.1,0,1.4-0.3,1.6-0.4c0.7-0.3,0.7-0.9,1.3-1.1c0.5-0.3,0.8-0.7,1.3-1.1c0.6-0.5,0.8-0.6,1-0.7
			c0,0,1.4-1.4,2.3-2.3c0.4-0.4,0.6-0.9,0.6-0.9c0,0,0,0-0.1,0c-0.2,0-0.7,0.2-0.7,0.2C146.8,55.5,145.4,56.3,145.3,56.4z"/>
		<path fill="#555759" d="M160.1,49.1L160.1,49.1c-0.1,0.7-0.1,0.9-0.3,1.3l0,0.1c0,0.1,0,0.1,0,0.2c0,0.1,0.1,0.2,0.2,0.2
			c0.2,0,0.3-0.1,0.5-0.2c0.1-0.1,0.2-0.2,0.4-0.2c0,0,0.1,0,0.1,0c0,0,0,0.1-0.1,0.2c-0.2,0.2-0.7,0.5-1.1,0.5
			c-0.2,0-0.3,0-0.5-0.1c-0.1,0.2-0.3,0.3-0.5,0.4c-0.5,0.3-1.2,0.7-1.9,1c-0.5,0.2-0.8,0.3-1.4,0.3c-0.2,0-0.5-0.3-0.6-0.6
			c0-0.1,0-0.1,0-0.2c0-0.3,0.1-0.7,0.2-0.9c0.1-0.2,0.1-0.2,0.1-0.2c0-0.1-0.1-0.1-0.1-0.1c-0.1,0-0.1,0-0.1-0.1c0,0,0-0.1,0.1-0.1
			c0.2-0.1,0.5-0.3,0.8-0.6c0.3-0.4,1-0.8,1.5-1.1c0.2-0.1,0.7-0.2,1.1-0.2h0.1c0.2,0,0.5,0.1,0.6,0.2c0.3-0.1,0.3-0.2,0.5-0.2
			C160,48.7,160.1,49,160.1,49.1z M158.9,49.5C158.9,49.5,158.9,49.5,158.9,49.5c-0.1,0-0.2,0-0.2,0c-0.3,0.4-1.7,0.8-2.2,0.9
			c-0.3,0.1-0.7,1-0.7,1.3c0,0.3,0.3,0.3,0.5,0.3c0.4,0,1.3-0.2,1.7-0.5c0.1-0.1,0.4-0.4,0.8-0.7c0-0.1,0.1-0.2,0.1-0.3
			c0,0,0.3-0.3,0.3-0.5C159.2,49.8,159.1,49.7,158.9,49.5z"/>
		<path fill="#555759" d="M164.9,52.1c-0.2,0-0.5-0.4-0.5-0.5c0-0.5,0.3-0.9,0.4-1.3c-0.6,0.3-2.6,1.7-3.7,1.7
			c-0.2,0-0.3-0.2-0.3-0.4c0-0.2,0.1-0.5,0.2-0.7l0.2-0.3c-0.1,0-0.3,0.2-0.5,0.2c0,0-0.1,0-0.1-0.1c0-0.1,0.1-0.1,0.1-0.1
			c0.3-0.2,0.7-0.5,1-0.7c0.2-0.2,0.4-0.4,0.7-0.6c0.2-0.2,0.5-0.6,0.7-0.6c0.1,0,0.4,0.1,0.4,0.2c0,0.3-1.7,1.5-1.7,2.2
			c0,0.2,0.2,0.2,0.3,0.2c0.9,0,2.9-1.7,3.5-2.4c0.2-0.2,0.5-0.8,0.7-0.8c0.1,0,0.5,0.1,0.5,0.2c0,0.4-1.6,1.9-1.6,2.8
			c0,0,0,0.3,0.2,0.3c0.6,0,1.1-0.6,1.6-0.7l0.1,0.1C167.1,50.9,165.2,52.1,164.9,52.1z"/>
		<path fill="#555759" d="M170,48.6c0,0.2,0.4,0.7,0.4,1.2c0,0.3-0.4,0.9-0.4,0.9c-0.2,0.3-0.1,0.2-0.4,0.6
			c-0.1,0.1-0.2,0.2-0.2,0.3c0,0.1,0,0.1,0.2,0.1c0.2,0,2-0.7,2.7-1.2c0.1,0,0.2-0.1,0.2-0.1c0.1,0,0.1,0,0.1,0.1c0,0,0,0.1-0.1,0.2
			c-0.1,0.1-0.5,0.4-0.6,0.4c-0.5,0.3-2.7,1.6-2.9,1.6c-0.5,0-0.8-0.2-0.8-0.5c0-0.1,0-0.2,0.1-0.2c0.4-0.6,1.2-1.9,1.2-2.2
			c0-0.2-0.2-0.3-0.4-0.3c-0.3,0-0.7,0.5-1,0.7c-0.4,0.3-1,0.7-1.1,0.7c-0.1,0-0.2,0-0.2-0.1c0,0,0-0.1,0-0.1
			c0.3-0.2,1.2-0.9,1.4-1.2c0,0,0.3-0.3,0.3-0.4c0.1-0.1,0.1-0.3,0.2-0.4c0.1-0.2,0.3-0.7,0.5-0.8c0.1-0.1,0.3-0.1,0.3-0.1
			C169.9,47.8,170,48.5,170,48.6z"/>
		<path fill="#555759" d="M182.7,50.5c0.1,0,0.1,0.1,0.1,0.1c0,0,0,0.1-0.1,0.1c-0.8,0.6-0.9,0.7-1.6,1c-0.3,0.2-0.7,0.2-1.4,0.2
			c-0.4,0-1-0.7-1.1-1c-0.1,0-0.2,0-0.4,0c-0.2,0-0.4,0-0.7,0.1c0-0.2,0.6-0.6,0.6-0.6s0.5-0.3,0.6-0.6c0.1-0.3,0.2-0.5,0.4-0.7
			c0.6-0.8,1.2-1.5,2.1-1.5c0.6,0,1.3,0.2,1.3,0.9c-0.1,0.4-1,1-1.2,1.1c-0.7,0.7-1.9,0.9-1.9,1.1c0,0,0,0.1,0,0.1
			c0,0.3,0.5,0.6,0.6,0.6c0,0,0.1,0,0.2,0c0.2,0,0.6-0.1,0.8-0.2C181.8,51,182.1,50.8,182.7,50.5C182.7,50.5,182.7,50.5,182.7,50.5z
			 M181,48.3c-0.2,0-0.3,0-0.4,0.1c-0.2,0.1-0.6,0.5-0.7,0.8c-0.2,0.2-0.2,0.4-0.2,0.6c0,0.1,0,0.1,0.1,0.1c0,0,0.1,0,0.1,0
			c0.2-0.1,0.5-0.1,0.8-0.3c0.3-0.2,1-0.7,1-0.9c0,0,0-0.1,0-0.1c-0.1-0.1-0.2-0.2-0.3-0.2C181.2,48.3,181.1,48.3,181,48.3z"/>
		<path fill="#555759" d="M186,51.1c-0.3,0-0.7,0.2-1,0.3c-0.5,0.2-0.8,0.2-1.1,0.2c-0.4,0-0.6-0.3-0.6-0.6c0-0.3,0.1-0.6,0.2-0.9
			l0.1-0.2c0,0,1.4-2.6,1.9-2.6c0.2,0,0.4,0.2,0.4,0.3c-0.2,0.7-1.4,1.8-1.7,3c0,0,0,0.1,0,0.1c0,0.2,0.1,0.3,0.3,0.3
			c0.6,0,1-0.1,1.6-0.4c0.7-0.3,0.8-1,1.6-1c0.2,0,0.4,0,0.4,0.3c0,0.1-0.9,0.9-1.2,1.3c0,0.1-0.1,0.2-0.2,0.3c-0.2,0.2-1,0.9-1,1.1
			c0,0,0,0.1,0.1,0.1c0.1,0,0.2-0.1,0.2-0.1c0.1-0.1,2.2-1.4,2.3-1.5l1.4-0.8c0.1,0,0.1,0,0.1,0c0,0,0.1,0,0.1,0c0,0,0,0.1-0.1,0.2
			c-0.1,0.1-1.1,0.7-1.3,0.8l-2,1.5c-0.2,0.1-0.5,0.2-0.7,0.4c-0.3,0.2-0.8,0.5-1.2,0.7c-0.3,0.2-0.5,0.5-0.8,0.8
			c-0.6,0.6-1.2,1.1-1.5,1.5l-0.2,0.2c-0.7,0.7-1.4,1.5-2.2,2.2c-0.2,0.2-0.6,0.4-0.8,0.7c-1.5,1.4-2,2.2-4,3.3
			c-0.5,0.1-1,0.2-1.6,0.3c0,0-0.1,0-0.1,0c-0.1,0-0.2,0-0.3,0c0,0-0.3-0.1-0.3-0.5c0,0,0-0.1,0-0.2c0-0.2,0-0.4,0.2-0.6
			c0.5-0.8,1.1-1.5,2.1-2.2c0.1-0.1,0.2-0.2,0.3-0.3c0.1-0.2,0.3-0.2,0.4-0.4c0.1-0.2,0.3-0.3,0.4-0.5c0.3-0.2,0.5-0.4,0.8-0.6
			c0.5-0.4,0.3-0.3,0.8-0.6c0.8-0.5,1.5-1.1,2.4-1.5c0.9-0.4,1.8-1,2.8-1.3c0,0,1.3-0.9,1.5-1.1c0.2-0.2,1.7-1.5,1.9-1.9
			C186.1,51.1,186.1,51.1,186,51.1z M179.2,56.4c-1.7,0.9-2.2,1.5-3.8,2.8c-0.2,0.1-1.4,1.1-1.4,1.5c0,0-0.2,0.5-0.3,0.7
			c0.1,0,0,0.3,0.2,0.3c0.1,0,1.4-0.3,1.6-0.4c0.7-0.3,0.7-0.9,1.3-1.1c0.5-0.3,0.8-0.7,1.3-1.1c0.6-0.5,0.8-0.6,1-0.7
			c0,0,1.4-1.4,2.3-2.3c0.4-0.4,0.6-0.9,0.6-0.9c0,0,0,0-0.1,0c-0.2,0-0.7,0.2-0.7,0.2C180.7,55.5,179.3,56.3,179.2,56.4z"/>
		<path fill="#555759" d="M193.8,50.5c0.1,0,0.1,0.1,0.1,0.1c0,0,0,0.1-0.1,0.1c-0.8,0.6-0.9,0.7-1.6,1c-0.3,0.2-0.7,0.2-1.4,0.2
			c-0.4,0-1-0.7-1.1-1c-0.1,0-0.2,0-0.4,0c-0.2,0-0.4,0-0.7,0.1c0-0.2,0.6-0.6,0.6-0.6s0.5-0.3,0.6-0.6c0.1-0.3,0.2-0.5,0.4-0.7
			c0.6-0.8,1.2-1.5,2.1-1.5c0.6,0,1.3,0.2,1.3,0.9c-0.1,0.4-1,1-1.2,1.1c-0.7,0.7-1.9,0.9-1.9,1.1c0,0,0,0.1,0,0.1
			c0,0.3,0.5,0.6,0.6,0.6c0,0,0.1,0,0.2,0c0.2,0,0.6-0.1,0.8-0.2C192.9,51,193.2,50.8,193.8,50.5C193.8,50.5,193.8,50.5,193.8,50.5z
			 M192,48.3c-0.2,0-0.3,0-0.4,0.1c-0.2,0.1-0.6,0.5-0.7,0.8c-0.2,0.2-0.2,0.4-0.2,0.6c0,0.1,0,0.1,0.1,0.1c0,0,0.1,0,0.1,0
			c0.2-0.1,0.5-0.1,0.8-0.3c0.3-0.2,1-0.7,1-0.9c0,0,0-0.1,0-0.1c-0.1-0.1-0.2-0.2-0.3-0.2C192.3,48.3,192.2,48.3,192,48.3z"/>
		<path fill="#555759" d="M197.4,47.4c0,0.1,0,0.3-0.1,0.4c-0.1,0.3-0.5,0.9-1.2,1.3c-0.1,0.1-0.1,0.1-0.1,0.2c0,0.1,0,0.1,0,0.2
			c0,0.3,0.2,0.6,0.3,0.7c0.1,0.2,0.2,0.4,0.2,0.7c0,0.1,0,0.2,0,0.3c0,0.2,0,0.3-0.1,0.4c-0.1,0.4-0.3,0.7-0.4,0.9
			c-0.2,0.2-0.4,0.5-0.6,0.7l-0.1,0.1c-0.2,0.2-0.5,0.3-0.6,0.4c-0.5,0.2-0.9,0.2-1.1,0.2c-0.2,0-0.5-0.3-0.5-0.6c0,0,0-0.1,0-0.1
			c0-0.3,0.3-0.5,0.6-0.5c0.1,0,0.2,0.1,0.3,0.1c0.2,0,0.5,0,0.8-0.2c0.4-0.3,0.7-0.4,1-1c0.1-0.1,0.2-0.5,0.2-0.7
			c0-0.3-0.1-0.6-0.2-0.8c-0.1-0.1-0.1-0.4-0.1-0.6c0,0,0-0.1,0-0.1c-0.1,0-0.9,0.8-1.2,0.9c-0.2,0.1-0.5,0.2-0.9,0.4
			c-0.1,0.1-0.2,0.1-0.3,0.1c0,0-0.1,0-0.1,0c0,0,0.1-0.1,0.2-0.2c0.1-0.1,0.2-0.1,0.3-0.2c0.3-0.1,1.6-1.3,2.1-1.9
			c0.3-0.7,0.8-1.5,1.3-1.5C197.3,47,197.4,47.2,197.4,47.4z"/>
		<path fill="#555759" d="M200,51.1c0,0.3-0.5,0.8-0.7,0.8c-0.3,0-0.9-0.1-0.9-0.6c0-0.1,0.7-0.9,1.2-0.9
			C199.7,50.5,199.9,50.9,200,51.1C200,51.1,200,51.1,200,51.1z"/>
	</g>
	<g>
		<path fill="#555759" d="M4.9,13.6h13.8v1.3c-0.5-0.1-1-0.1-1.4-0.1H9.6v6.2h6.5c0.5,0,1,0,1.4-0.1v1.3c-0.4-0.1-0.8-0.1-1.3-0.1
			H9.6v6.9c0,0.3,0.1,0.5,0.2,0.8H4.9c0.1-0.2,0.2-0.5,0.2-0.8V14.4C5.1,14.1,5,13.9,4.9,13.6z"/>
		<path fill="#555759" d="M30.4,22.8l-7-8.5c-0.2-0.3-0.4-0.5-0.6-0.7h5.3c0,0.2,0.2,0.4,0.4,0.7l5.5,6.7l5.7-6.8
			c0.2-0.2,0.3-0.4,0.4-0.7h2.6c-0.2,0.2-0.4,0.4-0.6,0.6L35,22.7v6.4c0,0.3,0.1,0.6,0.2,0.8h-4.9c0.1-0.2,0.2-0.5,0.2-0.8V22.8z"/>
		<path fill="#555759" d="M49,16.9c0.5,0,0.9,0.1,1.2,0.2c0.3,0.2,0.4,0.4,0.4,0.7c0,0.3-0.1,0.5-0.4,0.7c-0.3,0.2-0.7,0.3-1.2,0.3
			c-1.1,0-1.7-0.3-1.7-0.9c0-0.3,0.2-0.5,0.5-0.7C48.1,17,48.5,16.9,49,16.9z M47.6,19.7h2.9c-0.1,0.2-0.1,0.4-0.1,0.6v8.9
			c0,0.2,0,0.4,0.1,0.6h-2.9c0.1-0.2,0.1-0.4,0.1-0.6v-8.9C47.7,20.1,47.6,19.9,47.6,19.7z"/>
	</g>
	<path fill="#004D71" d="M0,8.3v2.3c0,0,13.4-7,29.1-6.7C44.7,4.1,56,10.6,56,10.6V8.3c0,0-10.7-7.5-26.9-8C12.9-0.2,0,8.3,0,8.3z"
		/>
	<path fill="#004D71" d="M41.3,38.3c-4.3,1-9.2,1.7-14.4,1.6C11.2,39.7,0,33.2,0,33.2v2.3c0,0,10.7,7.5,26.9,8
		c5.3,0.2,10.2-0.6,14.4-1.8V38.3z"/>
	<path fill="#004D71" d="M67.3,28.4c-0.6,0.5-1.1,0.8-1.5,1c-0.9,0.4-2,0.6-3.4,0.6c-2,0-3.5-0.5-4.6-1.4c-1.1-1-1.6-2.3-1.6-3.9
		c0-1.6,0.6-2.9,1.8-3.9c1.1-0.9,2.7-1.4,4.8-1.4c1,0,1.9,0.1,2.6,0.3c0.7,0.2,1.3,0.5,1.9,1v-4.3c0-0.2,0-0.4-0.1-0.6h3.6
		c-0.1,0.2-0.1,0.4-0.1,0.6v12.8c0,0.2,0,0.4,0.1,0.6h-3.4V28.4z M63.6,20.5c-0.9,0-1.7,0.2-2.3,0.6c-1.1,0.7-1.6,1.9-1.6,3.6
		c0,2.7,1.3,4,3.8,4c1.3,0,2.3-0.4,3-1.1c0.7-0.7,1-1.8,1-3.1C67.4,21.9,66.2,20.6,63.6,20.5z"/>
	<path fill="#004D71" d="M82.7,19.5c2.5,0,4.5,0.5,5.9,1.5c1.3,1,2,2.2,2,3.8c0,1.7-0.8,3-2.3,3.9c-1.4,0.9-3.3,1.3-5.6,1.3
		c-2.5,0-4.4-0.5-5.8-1.5c-1.4-1-2.1-2.3-2.1-4c0-1.5,0.7-2.7,2.1-3.7C78.3,20,80.2,19.5,82.7,19.5z M82.7,20.3
		c-0.6,0-1.2,0.1-1.7,0.3c-0.6,0.2-1,0.4-1.3,0.8c-0.9,0.8-1.3,2-1.3,3.4c0,1.4,0.4,2.6,1.3,3.4c0.3,0.3,0.8,0.6,1.3,0.8
		c0.5,0.2,1.1,0.3,1.7,0.3c0.6,0,1.2-0.1,1.7-0.3c0.5-0.2,1-0.4,1.3-0.8c0.9-0.8,1.3-2,1.3-3.4c0-1.4-0.4-2.6-1.3-3.4
		C85,20.7,84,20.3,82.7,20.3z"/>
	<path fill="#004D71" d="M106.4,29.3c-1.3,0.3-2.2,0.5-2.7,0.6c-0.5,0.1-1.2,0.1-2.1,0.1c-2.4,0-4.3-0.4-5.6-1.3
		c-1.4-0.9-2.1-2.2-2.1-3.8c0-1.8,0.9-3.2,2.7-4.2c1.5-0.8,3.4-1.2,5.7-1.2c1.3,0,2.7,0.1,4.1,0.4v1.5c-0.8-0.4-1.5-0.6-2-0.8
		c-0.5-0.1-1.2-0.2-1.9-0.2c-1.6,0-2.8,0.4-3.6,1.1c-0.9,0.8-1.4,1.9-1.4,3.2c0,1.2,0.4,2.1,1.1,2.9c0.8,0.9,2.1,1.3,3.8,1.3
		c0.7,0,1.4-0.1,2-0.2c0.6-0.2,1.3-0.4,2.1-0.8V29.3z"/>
	<path fill="#004D71" d="M110.8,20.6h-2.5v-0.9h2.5v-2l3.4-0.2c0,0.4-0.1,0.6-0.1,0.7v1.4h2.7v0.9h-2.7V28c0,0.6,0.4,0.9,1.3,0.9
		c0.4,0,0.9-0.1,1.5-0.3v1.1c-0.9,0.3-1.9,0.4-2.9,0.4c-1.1,0-1.9-0.2-2.5-0.5c-0.5-0.3-0.8-0.8-0.8-1.5V20.6z"/>
	<path fill="#004D71" d="M127.1,19.5c2.5,0,4.5,0.5,5.9,1.5c1.3,1,2,2.2,2,3.8c0,1.7-0.8,3-2.3,3.9c-1.4,0.9-3.3,1.3-5.6,1.3
		c-2.5,0-4.4-0.5-5.8-1.5c-1.4-1-2.1-2.3-2.1-4c0-1.5,0.7-2.7,2.1-3.7C122.7,20,124.7,19.5,127.1,19.5z M127.1,20.3
		c-0.6,0-1.2,0.1-1.7,0.3c-0.6,0.2-1,0.4-1.3,0.8c-0.9,0.8-1.3,2-1.3,3.4c0,1.4,0.4,2.6,1.3,3.4c0.3,0.3,0.8,0.6,1.3,0.8
		c0.5,0.2,1.1,0.3,1.7,0.3c0.6,0,1.2-0.1,1.7-0.3c0.5-0.2,1-0.4,1.3-0.8c0.9-0.8,1.3-2,1.3-3.4c0-1.4-0.4-2.6-1.3-3.4
		C129.5,20.7,128.4,20.3,127.1,20.3z"/>
	<path fill="#004D71" d="M139.1,19.7h3.4V21c0.3-0.5,0.8-0.9,1.4-1.1c0.6-0.2,1.6-0.4,2.8-0.4V21c-0.3,0-0.4,0-0.5,0
		c-2.4,0-3.7,0.8-3.7,2.4v5.8c0,0.2,0,0.4,0.1,0.6h-3.6c0.1-0.2,0.1-0.4,0.1-0.6v-8.9C139.2,20.1,139.2,19.9,139.1,19.7z"/>
	<path fill="#004D71" d="M149.2,29.2l0.6-1.4c1,0.5,1.8,0.8,2.5,1c0.7,0.2,1.5,0.3,2.4,0.3c1.1,0,1.9-0.2,2.5-0.5
		c0.5-0.3,0.8-0.7,0.8-1.2c0-0.4-0.3-0.8-0.8-1c-0.5-0.3-1.6-0.6-3.4-1c-1.7-0.4-2.8-0.9-3.4-1.3c-0.5-0.5-0.8-1-0.8-1.5
		c0-1.1,0.8-1.9,2.3-2.4c1.1-0.4,2.3-0.6,3.8-0.6c1.6,0,3.3,0.2,5.1,0.7l-0.6,1.3c-1.5-0.7-2.9-1-4.2-1c-0.9,0-1.7,0.1-2.2,0.4
		c-0.6,0.3-0.9,0.7-0.9,1.1c0,0.4,0.2,0.7,0.7,0.9c0.5,0.2,1.4,0.5,2.9,0.8c1.8,0.4,3,0.8,3.7,1.3c0.7,0.4,1,1,1,1.8
		c0,1.1-0.7,1.9-2,2.5c-1.1,0.5-2.6,0.8-4.5,0.8C152.8,30.1,151,29.8,149.2,29.2z"/>
	<path fill="#004D71" d="M162.7,27.6v-0.2h1.8v0.2h-0.7v2h-0.3v-2H162.7z"/>
	<path fill="#004D71" d="M165.1,27.4l0.7,1.9l0.7-1.9h0.4v2.2h-0.3v-1.8h0l-0.7,1.8h-0.2l-0.7-1.8h0v1.8h-0.3v-2.2H165.1z"/>
</g>
</svg>
